<?xml version="1.0" encoding="UTF-8"?>
<svg id="Capa_1" xmlns="http://www.w3.org/2000/svg" viewBox="0 0 595.28 595.28">
  <defs>
    <style>
      .cls-1 {
        fill: #f2c315;
      }

      .cls-2, .cls-3 {
        fill: #1d1d1b;
      }

      .cls-4 {
        fill: #fff;
        font-size: 37.21px;
      }

      .cls-4, .cls-3 {
        font-family: BebasNeue-Regular, 'Bebas Neue';
      }

      .cls-5 {
        fill: #0d0a06;
      }

      .cls-6 {
        letter-spacing: 0em;
      }

      .cls-3 {
        font-size: 132.89px;
      }

      .cls-7 {
        letter-spacing: 0em;
      }
    </style>
  </defs>
  <path class="cls-1" d="M556.79,187.3c-14.28-33.75-34.72-64.07-60.75-90.1-26.03-26.03-56.35-46.47-90.1-60.75-34.95-14.78-72.07-22.28-110.34-22.28s-75.39,7.5-110.34,22.28c-33.76,14.28-64.07,34.72-90.1,60.75-26.03,26.03-46.47,56.35-60.75,90.1-14.78,34.95-22.28,72.07-22.28,110.34s7.5,75.39,22.28,110.34c14.28,33.76,34.72,64.07,60.75,90.1,26.03,26.03,56.35,46.47,90.1,60.75,34.95,14.78,72.07,22.28,110.34,22.28s75.39-7.5,110.34-22.28c33.76-14.28,64.07-34.72,90.1-60.75,26.03-26.03,46.47-56.35,60.75-90.1,14.78-34.95,22.28-72.07,22.28-110.34s-7.5-75.39-22.28-110.34Z"/>
  <path class="cls-2" d="M539.59,194.57c-13.34-31.53-32.43-59.85-56.74-84.17-24.32-24.32-52.63-43.41-84.17-56.74-32.65-13.81-67.32-20.81-103.07-20.81s-70.42,7-103.07,20.81c-31.53,13.34-59.85,32.43-84.16,56.74-20.45,20.45-37.21,43.74-49.95,69.39h-.22v.44c-2.33,4.7-4.52,9.48-6.57,14.34-13.81,32.65-20.81,67.32-20.81,103.07s7,70.42,20.81,103.07c3.7,8.76,7.85,17.27,12.43,25.51v.87h.48c11.83,21.1,26.5,40.46,43.83,57.79,24.32,24.32,52.63,43.41,84.16,56.74,32.65,13.81,67.32,20.81,103.07,20.81s70.42-7,103.07-20.81c31.53-13.34,59.85-32.43,84.17-56.74,24.32-24.32,43.41-52.63,56.74-84.16,13.81-32.65,20.81-67.32,20.81-103.07s-7-70.42-20.81-103.07ZM522.65,417.02h-154.06v10.06h148.46c-44.59,75.98-127.15,127.1-221.43,127.1s-176.84-51.12-221.43-127.1h147.21v-10.06H68.57c-18.84-35.68-29.51-76.31-29.51-119.39,0-38.48,8.52-75,23.76-107.79h158.57v-10.06H67.77C110.52,97.46,196.61,41.09,295.61,41.09s185.08,56.37,227.84,138.7h-154.87v10.06h159.81c15.24,32.79,23.76,69.31,23.76,107.79,0,43.08-10.67,83.71-29.51,119.39Z"/>
  <g>
    <path class="cls-2" d="M552.54,189.1c-14.04-33.2-34.15-63.03-59.76-88.63-25.61-25.61-55.43-45.71-88.63-59.76-34.38-14.54-70.9-21.91-108.54-21.91s-74.16,7.37-108.54,21.91c-33.21,14.04-63.03,34.15-88.63,59.76-25.61,25.61-45.71,55.43-59.76,88.63-14.54,34.38-21.91,70.9-21.91,108.54s7.37,74.16,21.91,108.54c14.04,33.21,34.15,63.03,59.76,88.63,25.61,25.61,55.43,45.71,88.63,59.76,34.38,14.54,70.9,21.91,108.54,21.91s74.16-7.37,108.54-21.91c33.21-14.04,63.03-34.15,88.63-59.76,25.61-25.61,45.71-55.43,59.76-88.63,14.54-34.38,21.91-70.9,21.91-108.54s-7.37-74.16-21.91-108.54ZM295.61,572.86c-151.76,0-275.22-123.47-275.22-275.22S143.85,22.41,295.61,22.41s275.22,123.46,275.22,275.22-123.46,275.22-275.22,275.22Z"/>
    <path class="cls-2" d="M556.79,187.3c-14.28-33.75-34.72-64.07-60.75-90.1-26.03-26.03-56.35-46.47-90.1-60.75-34.95-14.78-72.07-22.28-110.34-22.28s-75.39,7.5-110.34,22.28c-33.76,14.28-64.07,34.72-90.1,60.75-26.03,26.03-46.47,56.35-60.75,90.1-14.78,34.95-22.28,72.07-22.28,110.34s7.5,75.39,22.28,110.34c14.28,33.76,34.72,64.07,60.75,90.1,26.03,26.03,56.35,46.47,90.1,60.75,34.95,14.78,72.07,22.28,110.34,22.28s75.39-7.5,110.34-22.28c33.76-14.28,64.07-34.72,90.1-60.75,26.03-26.03,46.47-56.35,60.75-90.1,14.78-34.95,22.28-72.07,22.28-110.34s-7.5-75.39-22.28-110.34ZM554.44,406.98c-14.15,33.45-34.4,63.49-60.2,89.29-25.8,25.8-55.84,46.05-89.29,60.2-34.63,14.65-71.42,22.08-109.34,22.08s-74.71-7.43-109.34-22.08c-33.45-14.15-63.49-34.4-89.29-60.2-25.8-25.8-46.05-55.84-60.2-89.29-14.65-34.63-22.08-71.42-22.08-109.34s7.43-74.71,22.08-109.34c14.15-33.45,34.4-63.49,60.2-89.29,25.8-25.8,55.84-46.05,89.29-60.2,34.64-14.65,71.42-22.08,109.34-22.08s74.71,7.43,109.34,22.08c33.45,14.15,63.49,34.4,89.29,60.2,25.8,25.8,46.05,55.84,60.2,89.29,14.65,34.63,22.08,71.42,22.08,109.34s-7.43,74.71-22.08,109.34Z"/>
  </g>
  <text class="cls-3" transform="translate(155.55 332.39)"><tspan x="0" y="0">TURRIL</tspan></text>
  <text class="cls-3" transform="translate(248.63 224.2)"><tspan x="0" y="0">EL</tspan></text>
  <text class="cls-4" transform="translate(164.13 373.6)"><tspan x="0" y="0">SMOKED R</tspan><tspan class="cls-6" x="113.71" y="0">O</tspan><tspan class="cls-7" x="128.52" y="0">A</tspan><tspan x="143.32" y="0">STED FOOD</tspan></text>
  <path class="cls-5" d="M328.2,510.53l-.36.2-.27.29c-.46.49-7.17,7.24-7.98,8.04-.42.42-.86.84-1.29,1.22-13.33,12-33.71,11.46-46.4-1.22-12.69-12.69-13.23-33.07-1.22-46.4l.4-.46,39.92-39.92.53-.57c.28-.25.55-.52.82-.78.51-.51.99-1.04,1.44-1.58,2.62-3.15,4.38-6.95,5.07-10.97,1.32-7.53-1.12-15.25-6.51-20.65-8.5-8.5-22.39-9.14-31.62-1.44-.54.45-1.08.94-1.58,1.44-.07.07-7.64,7.67-8.18,8.32l-1.46,1.75,4.32,4.32,1.93,2.01,1.75-2.16c.55-.63,7.07-7.21,7.87-8.01.37-.37.77-.73,1.22-1.09,5.83-4.67,14.23-4.2,19.51,1.09,5.29,5.29,5.76,13.68,1.09,19.51l-.51.63-39.67,39.67-.61.63c-.25.24-.5.48-.74.72-.47.47-.93.95-1.4,1.46-3.78,4.16-6.65,8.94-8.53,14.2-5.54,15.45-1.64,32.91,9.93,44.49,8.3,8.3,19.18,12.48,30.08,12.48,10.23,0,20.48-3.68,28.64-11.11.48-.45.96-.9,1.43-1.37.41-.41,7.64-7.67,8.12-8.17l.22-.23,7.72-14.01-13.68,7.64Z"/>
</svg>